<svg width="150" height="35" viewBox="0 0 150 35" fill="none" xmlns="http://www.w3.org/2000/svg">
<g id="Vector">
<path d="M43.8233 27.16V7.61091H47.7993V14.9609H47.9206C48.0949 14.5664 48.3469 14.1655 48.6766 13.7582C49.0126 13.3445 49.4482 13.0009 49.9833 12.7273C50.5246 12.4473 51.1967 12.3073 51.9993 12.3073C53.0447 12.3073 54.0091 12.5873 54.8927 13.1473C55.7762 13.7009 56.4824 14.5377 57.0113 15.6577C57.5402 16.7714 57.8047 18.1682 57.8047 19.8482C57.8047 21.4836 57.5465 22.8645 57.03 23.9909C56.5198 25.1109 55.8229 25.9605 54.9393 26.5395C54.062 27.1123 53.0789 27.3986 51.99 27.3986C51.2184 27.3986 50.562 27.2682 50.0206 27.0073C49.4855 26.7464 49.0469 26.4186 48.7046 26.0241C48.3624 25.6232 48.1011 25.2191 47.9206 24.8118H47.7433V27.16H43.8233ZM47.7153 19.8291C47.7153 20.7009 47.8335 21.4614 48.07 22.1105C48.3064 22.7595 48.6486 23.2655 49.0966 23.6282C49.5446 23.9845 50.0891 24.1627 50.73 24.1627C51.3771 24.1627 51.9247 23.9814 52.3727 23.6186C52.8207 23.2495 53.1598 22.7405 53.39 22.0914C53.6264 21.4359 53.7447 20.6818 53.7447 19.8291C53.7447 18.9827 53.6296 18.2382 53.3993 17.5955C53.1691 16.9527 52.83 16.45 52.382 16.0873C51.934 15.7245 51.3833 15.5432 50.73 15.5432C50.0829 15.5432 49.5353 15.7182 49.0873 16.0682C48.6455 16.4182 48.3064 16.9145 48.07 17.5573C47.8335 18.2 47.7153 18.9573 47.7153 19.8291Z" fill="#1A1A1A"/>
<path d="M68.0741 20.9173V12.4982H72.0501V27.16H68.2328V24.4968H68.0834C67.7599 25.3559 67.2216 26.0464 66.4688 26.5682C65.7221 27.09 64.8105 27.3509 63.7341 27.3509C62.7758 27.3509 61.9327 27.1282 61.2047 26.6827C60.4767 26.2373 59.9074 25.6041 59.4967 24.7832C59.0923 23.9623 58.8869 22.9791 58.8807 21.8336V12.4982H62.8567V21.1082C62.863 21.9736 63.0901 22.6577 63.5381 23.1605C63.9861 23.6632 64.5865 23.9145 65.3394 23.9145C65.8185 23.9145 66.2665 23.8032 66.6834 23.5805C67.1003 23.3514 67.4363 23.0141 67.6914 22.5686C67.9528 22.1232 68.0803 21.5727 68.0741 20.9173Z" fill="#1A1A1A"/>
<path d="M73.6535 27.16V12.4982H77.6295V27.16H73.6535ZM75.6508 10.6082C75.0597 10.6082 74.5526 10.4077 74.1295 10.0068C73.7126 9.59954 73.5041 9.11273 73.5041 8.54636C73.5041 7.98636 73.7126 7.50591 74.1295 7.105C74.5526 6.69773 75.0597 6.49409 75.6508 6.49409C76.2419 6.49409 76.7459 6.69773 77.1628 7.105C77.5859 7.50591 77.7975 7.98636 77.7975 8.54636C77.7975 9.11273 77.5859 9.59954 77.1628 10.0068C76.7459 10.4077 76.2419 10.6082 75.6508 10.6082Z" fill="#1A1A1A"/>
<path d="M83.2136 7.61091V27.16H79.2375V7.61091H83.2136Z" fill="#1A1A1A"/>
<path d="M90.1043 27.3986C89.0154 27.3986 88.0292 27.1123 87.1456 26.5395C86.2683 25.9605 85.5714 25.1109 85.0549 23.9909C84.5447 22.8645 84.2896 21.4836 84.2896 19.8482C84.2896 18.1682 84.5541 16.7714 85.0829 15.6577C85.6118 14.5377 86.315 13.7009 87.1923 13.1473C88.0759 12.5873 89.0434 12.3073 90.095 12.3073C90.8976 12.3073 91.5665 12.4473 92.1016 12.7273C92.643 13.0009 93.0785 13.3445 93.4083 13.7582C93.7443 14.1655 93.9994 14.5664 94.1737 14.9609H94.295V7.61091H98.2617V27.16H94.3416V24.8118H94.1737C93.987 25.2191 93.7225 25.6232 93.3803 26.0241C93.0443 26.4186 92.6056 26.7464 92.0643 27.0073C91.5292 27.2682 90.8759 27.3986 90.1043 27.3986ZM91.3643 24.1627C92.0052 24.1627 92.5465 23.9845 92.9883 23.6282C93.4363 23.2655 93.7785 22.7595 94.015 22.1105C94.2577 21.4614 94.379 20.7009 94.379 19.8291C94.379 18.9573 94.2608 18.2 94.0243 17.5573C93.7879 16.9145 93.4456 16.4182 92.9976 16.0682C92.5496 15.7182 92.0052 15.5432 91.3643 15.5432C90.711 15.5432 90.1603 15.7245 89.7123 16.0873C89.2643 16.45 88.9252 16.9527 88.695 17.5955C88.4647 18.2382 88.3496 18.9827 88.3496 19.8291C88.3496 20.6818 88.4647 21.4359 88.695 22.0914C88.9314 22.7405 89.2705 23.2495 89.7123 23.6186C90.1603 23.9814 90.711 24.1627 91.3643 24.1627Z" fill="#1A1A1A"/>
<path d="M99.9537 27.16V12.4982H103.743V15.085H103.911C104.21 14.2259 104.708 13.5482 105.404 13.0518C106.101 12.5555 106.935 12.3073 107.906 12.3073C108.889 12.3073 109.726 12.5586 110.416 13.0614C111.107 13.5577 111.568 14.2323 111.798 15.085H111.947C112.24 14.245 112.768 13.5736 113.534 13.0709C114.305 12.5618 115.217 12.3073 116.268 12.3073C117.606 12.3073 118.692 12.7432 119.526 13.615C120.366 14.4805 120.786 15.7086 120.786 17.2995V27.16H116.819V18.1014C116.819 17.2868 116.608 16.6759 116.184 16.2686C115.761 15.8614 115.232 15.6577 114.598 15.6577C113.876 15.6577 113.313 15.8932 112.908 16.3641C112.504 16.8286 112.302 17.4427 112.302 18.2064V27.16H108.447V18.0155C108.447 17.2964 108.245 16.7236 107.84 16.2973C107.442 15.8709 106.916 15.6577 106.263 15.6577C105.821 15.6577 105.423 15.7723 105.068 16.0014C104.72 16.2241 104.443 16.5391 104.238 16.9464C104.032 17.3473 103.93 17.8182 103.93 18.3591V27.16H99.9537Z" fill="#1A1A1A"/>
<path d="M126.438 27.4368C125.523 27.4368 124.708 27.2745 123.992 26.95C123.277 26.6191 122.71 26.1323 122.294 25.4895C121.883 24.8405 121.678 24.0323 121.678 23.065C121.678 22.2505 121.824 21.5664 122.116 21.0127C122.409 20.4591 122.807 20.0136 123.311 19.6764C123.815 19.3391 124.387 19.0845 125.028 18.9127C125.675 18.7409 126.354 18.62 127.063 18.55C127.897 18.4609 128.569 18.3782 129.079 18.3018C129.589 18.2191 129.959 18.0982 130.19 17.9391C130.42 17.78 130.535 17.5445 130.535 17.2327V17.1755C130.535 16.5709 130.348 16.1032 129.975 15.7723C129.608 15.4414 129.085 15.2759 128.407 15.2759C127.691 15.2759 127.122 15.4382 126.699 15.7627C126.276 16.0809 125.996 16.4818 125.859 16.9655L122.182 16.66C122.368 15.7691 122.735 14.9991 123.283 14.35C123.83 13.6945 124.537 13.1918 125.402 12.8418C126.273 12.4855 127.281 12.3073 128.426 12.3073C129.222 12.3073 129.984 12.4027 130.712 12.5936C131.446 12.7845 132.097 13.0805 132.663 13.4814C133.235 13.8823 133.686 14.3977 134.016 15.0277C134.346 15.6514 134.511 16.3991 134.511 17.2709V27.16H130.74V25.1268H130.628C130.398 25.585 130.09 25.9891 129.704 26.3391C129.318 26.6827 128.855 26.9532 128.314 27.1505C127.772 27.3414 127.147 27.4368 126.438 27.4368ZM127.576 24.6305C128.161 24.6305 128.678 24.5127 129.126 24.2773C129.574 24.0355 129.925 23.7109 130.18 23.3036C130.435 22.8964 130.563 22.435 130.563 21.9195V20.3636C130.438 20.4464 130.267 20.5227 130.05 20.5927C129.838 20.6564 129.598 20.7168 129.331 20.7741C129.063 20.825 128.796 20.8727 128.528 20.9173C128.261 20.9555 128.018 20.9905 127.8 21.0223C127.334 21.0923 126.926 21.2036 126.578 21.3564C126.229 21.5091 125.958 21.7159 125.766 21.9768C125.573 22.2314 125.476 22.5495 125.476 22.9314C125.476 23.485 125.672 23.9082 126.064 24.2009C126.462 24.4873 126.966 24.6305 127.576 24.6305Z" fill="#1A1A1A"/>
<path d="M136.019 32.6582V12.4982H139.939V14.9609H140.116C140.29 14.5664 140.542 14.1655 140.872 13.7582C141.208 13.3445 141.644 13.0009 142.179 12.7273C142.72 12.4473 143.392 12.3073 144.195 12.3073C145.24 12.3073 146.204 12.5873 147.088 13.1473C147.972 13.7009 148.678 14.5377 149.207 15.6577C149.736 16.7714 150 18.1682 150 19.8482C150 21.4836 149.742 22.8645 149.225 23.9909C148.715 25.1109 148.018 25.9605 147.135 26.5395C146.257 27.1123 145.274 27.3986 144.185 27.3986C143.414 27.3986 142.757 27.2682 142.216 27.0073C141.681 26.7464 141.242 26.4186 140.9 26.0241C140.558 25.6232 140.296 25.2191 140.116 24.8118H139.995V32.6582H136.019ZM139.911 19.8291C139.911 20.7009 140.029 21.4614 140.265 22.1105C140.502 22.7595 140.844 23.2655 141.292 23.6282C141.74 23.9845 142.284 24.1627 142.925 24.1627C143.572 24.1627 144.12 23.9814 144.568 23.6186C145.016 23.2495 145.355 22.7405 145.585 22.0914C145.822 21.4359 145.94 20.6818 145.94 19.8291C145.94 18.9827 145.825 18.2382 145.595 17.5955C145.364 16.9527 145.025 16.45 144.577 16.0873C144.129 15.7245 143.579 15.5432 142.925 15.5432C142.278 15.5432 141.731 15.7182 141.283 16.0682C140.841 16.4182 140.502 16.9145 140.265 17.5573C140.029 18.2 139.911 18.9573 139.911 19.8291Z" fill="#1A1A1A"/>
<path d="M34.2224 17.5C34.2224 27.165 26.5614 35 17.1112 35C7.66094 35 0 27.165 0 17.5C0 7.83502 7.66094 0 17.1112 0C26.5614 0 34.2224 7.83502 34.2224 17.5Z" fill="#0047FF"/>
<path d="M9.0347 11.718L14.5924 9.24L19.3562 11.718L24.3605 9.48697C24.4209 9.46003 24.4868 9.44912 24.5523 9.45521C24.6177 9.4613 24.6807 9.4842 24.7356 9.52187C24.7904 9.55953 24.8354 9.61078 24.8666 9.671C24.8977 9.73123 24.9139 9.79856 24.9139 9.86693V23.282L19.3562 25.76L14.5924 23.282L9.58809 25.513C9.52768 25.54 9.46179 25.5509 9.39632 25.5448C9.33086 25.5387 9.26787 25.5158 9.21302 25.4781C9.15816 25.4405 9.11315 25.3892 9.08203 25.329C9.05091 25.2688 9.03464 25.2014 9.0347 25.1331V11.718Z" fill="white"/>
</g>
</svg>
