<?xml version="1.0" encoding="UTF-8"?>
<svg xmlns="http://www.w3.org/2000/svg" xmlns:xlink="http://www.w3.org/1999/xlink" width="16px" height="16px" viewBox="0 0 16 16" version="1.1">
<g id="surface1">
<path style=" stroke:none;fill-rule:nonzero;fill:rgb(0%,3.921569%,100%);fill-opacity:1;" d="M 16 8 C 16 12.417969 12.417969 16 8 16 C 3.582031 16 0 12.417969 0 8 C 0 3.582031 3.582031 0 8 0 C 12.417969 0 16 3.582031 16 8 Z M 16 8 "/>
<path style=" stroke:none;fill-rule:nonzero;fill:rgb(100%,100%,100%);fill-opacity:1;" d="M 4.222656 5.355469 L 6.824219 4.222656 L 9.050781 5.355469 L 11.390625 4.335938 C 11.417969 4.324219 11.449219 4.320312 11.480469 4.324219 C 11.507812 4.324219 11.539062 4.335938 11.566406 4.351562 C 11.589844 4.371094 11.609375 4.394531 11.625 4.421875 C 11.640625 4.449219 11.648438 4.480469 11.648438 4.511719 L 11.648438 10.644531 L 9.050781 11.777344 L 6.824219 10.644531 L 4.484375 11.664062 C 4.453125 11.675781 4.421875 11.679688 4.394531 11.675781 C 4.363281 11.675781 4.332031 11.664062 4.308594 11.648438 C 4.28125 11.628906 4.261719 11.605469 4.246094 11.578125 C 4.230469 11.550781 4.222656 11.519531 4.222656 11.488281 Z M 4.222656 5.355469 "/>
</g>
</svg>
