<svg xmlns="http://www.w3.org/2000/svg" width="125" height="125" viewBox="0 0 125 125" fill="none">
  <circle cx="62.5" cy="62.5" r="62.5" fill="#000AFF"/>
  <path d="M33 41.85L53.3 33L70.7 41.85L88.9787 33.8821C89.1994 33.7858 89.44 33.7468 89.6792 33.7686C89.9183 33.7904 90.1483 33.8722 90.3487 34.0067C90.5491 34.1412 90.7135 34.3242 90.8271 34.5393C90.9408 34.7544 91.0002 34.9948 91 35.2391V83.15L70.7 92L53.3 83.15L35.0213 91.118C34.8007 91.2142 34.56 91.2532 34.3209 91.2314C34.0817 91.2097 33.8517 91.1278 33.6513 90.9933C33.4509 90.8588 33.2865 90.6758 33.1729 90.4607C33.0592 90.2456 32.9998 90.0052 33 89.7609V41.85Z" fill="white"/>
</svg>